<?xml version="1.0" encoding="UTF-8" standalone="no"?>
<svg
   height="512pt"
   viewBox="0 -4 512 512"
   width="512pt"
   version="1.1"
   id="svg20"
   sodipodi:docname="programacion-celular.svg"
   inkscape:version="1.1 (c68e22c387, 2021-05-23)"
   xmlns:inkscape="http://www.inkscape.org/namespaces/inkscape"
   xmlns:sodipodi="http://sodipodi.sourceforge.net/DTD/sodipodi-0.dtd"
   xmlns="http://www.w3.org/2000/svg"
   xmlns:svg="http://www.w3.org/2000/svg">
  <defs
     id="defs24" />
  <sodipodi:namedview
     id="namedview22"
     pagecolor="#ffffff"
     bordercolor="#999999"
     borderopacity="1"
     inkscape:pageshadow="0"
     inkscape:pageopacity="0"
     inkscape:pagecheckerboard="0"
     inkscape:document-units="pt"
     showgrid="false"
     inkscape:zoom="0.23876953"
     inkscape:cx="-23.034765"
     inkscape:cy="466.9775"
     inkscape:window-width="1600"
     inkscape:window-height="837"
     inkscape:window-x="-8"
     inkscape:window-y="-8"
     inkscape:window-maximized="1"
     inkscape:current-layer="svg20" />
  <path
     d="m354.480469 294.152344v-27.429688l-98.480469-56.855468-98.480469 56.855468v113.714844l98.480469 56.855469 98.480469-56.855469v-66.289062h-14.996094v57.632812l-83.484375 48.199219-83.480469-48.199219v-96.398438l83.480469-48.199218 83.484375 48.199218v18.769532zm0 0"
     id="path2"
     style="fill:#ffffff" />
  <path
     d="m255.996094 95.765625c26.402344 0 47.882812-21.480469 47.882812-47.882813 0-26.402343-21.480468-47.882812-47.882812-47.882812s-47.882813 21.480469-47.882813 47.882812c0 26.40625 21.480469 47.882813 47.882813 47.882813zm0-80.769531c18.132812 0 32.886718 14.753906 32.886718 32.886718 0 18.136719-14.753906 32.886719-32.886718 32.886719-18.132813 0-32.886719-14.75-32.886719-32.886719 0-18.132812 14.753906-32.886718 32.886719-32.886718zm0 0"
     id="path4"
     style="fill:#ffffff" />
  <path
     d="m412.941406 389.378906v-156.410156l-135.453125-78.203125v-46.5h-14.996093v55.160156l135.453124 78.203125v156.40625l93.570313 54.023438-6.5 11.253906-93.570313-54.023438-135.445312 78.195313-135.445312-78.195313-93.570313 54.023438-6.5-11.253906 93.570313-54.023438v-33.738281h-14.996094v25.082031l-99.058594 57.191406 21.496094 37.226563 99.058594-57.191406 135.445312 78.195312 135.445312-78.195312 99.058594 57.191406 21.496094-37.226563zm0 0"
     id="path6"
     style="fill:#ffffff" />
  <path
     d="m114.054688 241.628906 135.445312-78.199218v-55.164063h-14.996094v46.503906l-135.445312 78.199219v111.332031h14.996094zm0 0"
     id="path8"
     style="fill:#ffffff" />
  <path
     d="m287.882812 368.679688 41.601563-41.597657-41.601563-41.601562-10.601562 10.605469 30.992188 30.996093-30.992188 30.992188zm0 0"
     id="path10"
     style="fill:#ffffff" />
  <path
     d="m224.117188 285.480469-41.597657 41.601562 41.597657 41.597657 10.605468-10.605469-30.996094-30.992188 30.996094-30.996093zm0 0"
     id="path12"
     style="fill:#ffffff" />
  <path
     d="m238.773438 362.359375 19.941406-74.433594 14.488281 3.878907-19.945313 74.433593zm0 0"
     id="path14"
     style="fill:#ffffff" />
  <path
     d="m255.996094 72.261719c-6.519532 0-12.644532-2.53125-17.246094-7.132813l10.605469-10.605468c1.769531 1.769531 4.125 2.742187 6.640625 2.742187s4.871094-.972656 6.640625-2.742187c3.660156-3.660157 3.660156-9.617188 0-13.28125l10.605469-10.605469c9.507812 9.507812 9.507812 24.980469 0 34.492187-4.601563 4.601563-10.726563 7.132813-17.246094 7.132813zm0 0"
     id="path16"
     style="fill:#ffffff" />
  <path
     d="m387.949219 395.433594h-15v-93.714844h15zm0-103.710938h-15v-14.996094h15zm0-24.996094h-15v-14.996093h15zm0 0"
     id="path18"
     style="fill:#ffffff" />
</svg>
