<?xml version="1.0" encoding="UTF-8" standalone="no"?>
<!-- Generator: Adobe Illustrator 19.0.0, SVG Export Plug-In . SVG Version: 6.00 Build 0)  -->

<svg
   version="1.1"
   id="Capa_1"
   x="0px"
   y="0px"
   viewBox="0 0 512 512"
   style="enable-background:new 0 0 512 512;"
   xml:space="preserve"
   sodipodi:docname="logo.svg"
   inkscape:version="1.1 (c68e22c387, 2021-05-23)"
   xmlns:inkscape="http://www.inkscape.org/namespaces/inkscape"
   xmlns:sodipodi="http://sodipodi.sourceforge.net/DTD/sodipodi-0.dtd"
   xmlns="http://www.w3.org/2000/svg"
   xmlns:svg="http://www.w3.org/2000/svg"><defs
   id="defs61" /><sodipodi:namedview
   id="namedview59"
   pagecolor="#ffffff"
   bordercolor="#666666"
   borderopacity="1.0"
   inkscape:pageshadow="2"
   inkscape:pageopacity="0.0"
   inkscape:pagecheckerboard="0"
   showgrid="false"
   inkscape:zoom="0.52929688"
   inkscape:cx="-59.512915"
   inkscape:cy="187.98524"
   inkscape:window-width="1600"
   inkscape:window-height="837"
   inkscape:window-x="-8"
   inkscape:window-y="-8"
   inkscape:window-maximized="1"
   inkscape:current-layer="Capa_1" />
<circle
   style="fill:#3b4147;stroke-width:1;fill-opacity:1"
   cx="256"
   cy="256"
   id="circle2"
   r="256" />
<path
   style="fill:#1e1f23;fill-opacity:1"
   d="M512,256c0-0.037-0.001-0.073-0.001-0.11L392.127,136.018L100.5,375.982l135.219,135.219  C242.411,511.726,249.173,512,256,512C397.385,512,512,397.385,512,256z"
   id="path4" />
<polygon
   style="fill:#9ABADB;"
   points="392.127,136.018 256,136.018 243.842,349.394 392.127,337.236 "
   id="polygon6" />
<g
   id="g12">
	<polygon
   style="fill:#D1E8FF;"
   points="119.873,136.018 119.873,337.236 256,349.394 256,136.018  "
   id="polygon8" />
	<polygon
   style="fill:#D1E8FF;"
   points="411.5,337.236 256,337.236 243.842,356.609 256,375.982 411.5,375.982  "
   id="polygon10" />
</g>
<rect
   x="100.5"
   y="337.24"
   style="fill:#F5F5FF;"
   width="155.5"
   height="38.747"
   id="rect14" />
<polygon
   style="fill:#0c2259;fill-opacity:1"
   points="373.904,154.24 256,154.24 243.842,236.627 256,319.013 373.904,319.013 "
   id="polygon16" />
<rect
   x="138.1"
   y="154.24"
   style="fill:#1b4bc5;fill-opacity:1"
   width="117.9"
   height="164.77"
   id="rect18" />
<polygon
   style="fill:#f4e29d;fill-opacity:1"
   points="209.124,284.901 160.85,236.627 209.124,188.353 222.009,201.238 186.62,236.627   222.009,272.016 "
   id="polygon20" />
<g
   id="g26"
   style="fill:#ebc848;fill-opacity:1">
	<polygon
   style="fill:#ebc848;fill-opacity:1"
   points="302.876,284.901 289.991,272.016 325.38,236.627 289.991,201.238 302.876,188.353    351.15,236.627  "
   id="polygon22" />
	
		<rect
   x="246.888"
   y="179.052"
   transform="matrix(-0.9808 -0.1951 0.1951 -0.9808 460.912 518.6826)"
   style="fill:#ebc848;fill-opacity:1"
   width="18.223"
   height="115.182"
   id="rect24" />
</g>
<g
   id="g28">
</g>
<g
   id="g30">
</g>
<g
   id="g32">
</g>
<g
   id="g34">
</g>
<g
   id="g36">
</g>
<g
   id="g38">
</g>
<g
   id="g40">
</g>
<g
   id="g42">
</g>
<g
   id="g44">
</g>
<g
   id="g46">
</g>
<g
   id="g48">
</g>
<g
   id="g50">
</g>
<g
   id="g52">
</g>
<g
   id="g54">
</g>
<g
   id="g56">
</g>
</svg>
