<?xml version="1.0" encoding="UTF-8" standalone="no"?>
<!-- Created with Inkscape (http://www.inkscape.org/) -->

<svg
   width="79mm"
   height="93mm"
   viewBox="0 0 79 93"
   version="1.1"
   id="svg26408"
   inkscape:version="1.1 (c68e22c387, 2021-05-23)"
   sodipodi:docname="loaderTrazo.svg"
   inkscape:export-filename="C:\Users\ronny\Desktop\loader.png"
   inkscape:export-xdpi="942.62225"
   inkscape:export-ydpi="942.62225"
   xmlns:inkscape="http://www.inkscape.org/namespaces/inkscape"
   xmlns:sodipodi="http://sodipodi.sourceforge.net/DTD/sodipodi-0.dtd"
   xmlns="http://www.w3.org/2000/svg"
   xmlns:svg="http://www.w3.org/2000/svg">
  <sodipodi:namedview
     id="namedview26410"
     pagecolor="#ffffff"
     bordercolor="#666666"
     borderopacity="1.0"
     inkscape:pageshadow="2"
     inkscape:pageopacity="0.0"
     inkscape:pagecheckerboard="0"
     inkscape:document-units="px"
     showgrid="false"
     width="90mm"
     inkscape:zoom="1"
     inkscape:cx="194"
     inkscape:cy="140"
     inkscape:window-width="1359"
     inkscape:window-height="860"
     inkscape:window-x="175"
     inkscape:window-y="0"
     inkscape:window-maximized="0"
     inkscape:current-layer="layer5"
     inkscape:snap-global="true"
     inkscape:object-paths="true"
     inkscape:snap-intersection-paths="false"
     inkscape:snap-smooth-nodes="false"
     inkscape:snap-midpoints="false"
     inkscape:object-nodes="false"
     inkscape:snap-bbox="false"
     inkscape:lockguides="false"
     showguides="false" />
  <defs
     id="defs26405" />
  <g
     inkscape:groupmode="layer"
     id="layer1"
     inkscape:label="fondo"
     style="display:inline" />
  <g
     inkscape:groupmode="layer"
     id="layer6"
     inkscape:label="cuadro"
     style="display:inline" />
  <g
     inkscape:groupmode="layer"
     id="layer5"
     inkscape:label="sonbra"
     style="display:none"
     sodipodi:insensitive="true">
    <path
       style="display:inline;fill:#000000;fill-opacity:1;stroke:none;stroke-width:0.423333;stroke-linecap:butt;stroke-linejoin:miter;stroke-miterlimit:4;stroke-dasharray:none;stroke-opacity:1"
       d="M 51.687169,56.09969 73.284459,43.74145 53.858739,32.5677 v -3.69661 l 19.38722,11.21789 v -2.74381 l -21.7756,-12.57215 v 9.1766 l 16.43192,9.48697 -13.83582,7.98812 v -2.78735 l 8.15777,-4.70989 -2.7948,-1.61358 -7.99988,4.61873 z"
       id="path1401-1"
       sodipodi:nodetypes="ccccccccccccccc" />
    <path
       style="display:inline;fill:#000000;fill-opacity:1;stroke:none;stroke-width:0.423333;stroke-linecap:butt;stroke-linejoin:miter;stroke-miterlimit:4;stroke-dasharray:none;stroke-opacity:1"
       d="m 58.247119,12.82188 h -9.35752 l -24.35416,42.18265 h 2.91478 l 22.89721,-39.65912 h 3.47757 l -22.85482,39.58568 h 2.83684 z"
       id="path1403-3" />
    <path
       style="display:inline;mix-blend-mode:normal;fill:#000000;fill-opacity:1;stroke:none;stroke-width:0.423333;stroke-linecap:butt;stroke-linejoin:miter;stroke-miterlimit:4;stroke-dasharray:none;stroke-opacity:1"
       d="m 40.442378,84.797572 -23.91999,-23.91999 v 6.29212 l 17.78909,17.7891 z"
       id="path1935-4" />
    <path
       style="display:inline;fill:#000000;fill-opacity:1;stroke:none;stroke-width:0.423333;stroke-linecap:butt;stroke-linejoin:miter;stroke-miterlimit:4;stroke-dasharray:none;stroke-opacity:1"
       d="m 27.858128,84.830642 -11.32747,-11.32747 v 6.06888 l 5.33301,5.33301 z"
       id="path1937-4" />
    <path
       style="display:inline;fill:#000000;fill-opacity:1;stroke:none;stroke-width:0.423333;stroke-linecap:butt;stroke-linejoin:miter;stroke-miterlimit:4;stroke-dasharray:none;stroke-opacity:1"
       d="m 16.522388,60.952002 h 16.36283 c 0,0 7.80521,1.88516 7.63984,8.13593 -0.16536,6.25079 -6.95358,8.83874 -6.95358,8.83874 l -4.44004,-4.44004 h 3.58841 c 0,0 3.30729,-0.66146 3.43959,-3.83646 0.13229,-3.175 -3.50573,-4.59713 -3.50573,-4.59713 h -11.95586 z"
       id="path2201-4" />
    <path
       style="display:inline;fill:#000000;fill-opacity:1;stroke:none;stroke-width:0.423333;stroke-linecap:butt;stroke-linejoin:miter;stroke-miterlimit:4;stroke-dasharray:none;stroke-opacity:1"
       d="m 47.664158,84.999218 v -19.18928 l 8.55371,10.18299 12.35537,-14.93505 h -4.0732 l -8.19165,9.77567 -8.23691,-9.77567 h -4.20897 v 23.9866 z"
       id="path2382-7" />
    <path
       style="display:inline;fill:#000000;fill-opacity:1;stroke:none;stroke-width:0.423333;stroke-linecap:butt;stroke-linejoin:miter;stroke-miterlimit:4;stroke-dasharray:none;stroke-opacity:1"
       d="m 68.573238,84.953968 v -20.99959 l -12.35537,14.98031 -7.01494,-8.23691 v 5.11413 l 7.01494,8.2369 8.64423,-10.49979 -0.0453,11.4502 z"
       id="path2598-0" />
    <path
       style="display:inline;fill:#000000;fill-opacity:1;stroke:none;stroke-width:0.423333;stroke-linecap:butt;stroke-linejoin:miter;stroke-miterlimit:4;stroke-dasharray:none;stroke-opacity:1"
       d="M 31.251799,10.79368 9.654502,23.15195 29.080229,34.32567 v 3.69661 L 9.693012,26.8044 v 2.74381 L 31.468609,42.12036 V 32.94378 L 15.036681,23.4568 28.872509,15.46866 v 2.78735 l -8.15777,4.70992 2.7948,1.61357 7.99988,-4.61874 z"
       id="path1401-0-4"
       sodipodi:nodetypes="ccccccccccccccc" />
  </g>
  <g
     inkscape:groupmode="layer"
     id="layer2"
     inkscape:label="logo"
     style="display:inline">
    <path
       style="display:inline;fill:#4d4d4d;fill-opacity:1;stroke:none;stroke-width:0.423333;stroke-linecap:butt;stroke-linejoin:miter;stroke-miterlimit:4;stroke-dasharray:none;stroke-opacity:1"
       d="M 49.880482,52.68671 71.47778,40.32847 52.052052,29.15472 V 25.45811 L 71.43927,36.676 V 33.93219 L 49.663672,21.36004 v 9.1766 L 66.0956,40.02361 52.259772,48.01173 v -2.78735 l 8.15777,-4.70989 -2.7948,-1.61358 -7.99988,4.61873 z"
       id="path1401"
       sodipodi:nodetypes="ccccccccccccccc" />
    <path
       style="display:inline;fill:#4d4d4d;fill-opacity:1;stroke:none;stroke-width:0.423333;stroke-linecap:butt;stroke-linejoin:miter;stroke-miterlimit:4;stroke-dasharray:none;stroke-opacity:1"
       d="M 56.44044,9.4089 H 47.08292 L 22.72875,51.59155 h 2.91479 L 48.54075,11.93243 h 3.47757 L 29.1635,51.51811 h 2.83684 z"
       id="path1403" />
    <path
       style="display:inline;mix-blend-mode:normal;fill:#4d4d4d;fill-opacity:1;stroke:none;stroke-width:0.423333;stroke-linecap:butt;stroke-linejoin:miter;stroke-miterlimit:4;stroke-dasharray:none;stroke-opacity:1"
       d="M 38.635691,81.384592 14.715701,57.464605 v 6.292117 l 17.78909,17.7891 z"
       id="path1935" />
    <path
       style="display:inline;fill:#4d4d4d;fill-opacity:1;stroke:none;stroke-width:0.423333;stroke-linecap:butt;stroke-linejoin:miter;stroke-miterlimit:4;stroke-dasharray:none;stroke-opacity:1"
       d="m 26.051441,81.417662 -11.32747,-11.32747 v 6.06888 l 5.33301,5.33301 z"
       id="path1937" />
    <path
       style="display:inline;fill:#4d4d4d;fill-opacity:1;stroke:none;stroke-width:0.423333;stroke-linecap:butt;stroke-linejoin:miter;stroke-miterlimit:4;stroke-dasharray:none;stroke-opacity:1"
       d="m 14.715701,57.539025 h 16.36283 c 0,0 7.80521,1.88516 7.63984,8.135927 -0.16536,6.25079 -6.95358,8.83874 -6.95358,8.83874 l -4.44004,-4.44004 h 3.58841 c 0,0 3.30729,-0.66146 3.43959,-3.83646 0.13229,-3.175 -3.50573,-4.59713 -3.50573,-4.59713 h -11.95586 z"
       id="path2201" />
    <path
       style="display:inline;fill:#4d4d4d;fill-opacity:1;stroke:none;stroke-width:0.423333;stroke-linecap:butt;stroke-linejoin:miter;stroke-miterlimit:4;stroke-dasharray:none;stroke-opacity:1"
       d="m 45.857475,81.586238 v -19.18928 l 8.553711,10.18299 12.355366,-14.93505 h -4.073197 l -8.191651,9.77567 -8.236912,-9.77567 h -4.208968 v 23.9866 z"
       id="path2382" />
    <path
       style="display:inline;fill:#4d4d4d;fill-opacity:1;stroke:none;stroke-width:0.423333;stroke-linecap:butt;stroke-linejoin:miter;stroke-miterlimit:4;stroke-dasharray:none;stroke-opacity:1"
       d="m 66.766552,81.540988 v -20.99959 l -12.355366,14.98031 -7.014947,-8.23691 v 5.11413 l 7.014947,8.2369 8.64423,-10.49979 -0.04526,11.4502 z"
       id="path2598" />
    <path
       style="display:inline;fill:#4d4d4d;fill-opacity:1;stroke:none;stroke-width:0.423333;stroke-linecap:butt;stroke-linejoin:miter;stroke-miterlimit:4;stroke-dasharray:none;stroke-opacity:1"
       d="M 29.445117,7.3807 7.8478178,19.73897 27.273542,30.91269 V 34.6093 L 7.8863278,23.39142 v 2.74381 L 29.661923,38.70738 V 29.5308 L 13.229997,20.04382 27.065824,12.05568 v 2.78735 l -8.157771,4.70992 2.794803,1.61357 7.999876,-4.61874 z"
       id="path1401-0"
       sodipodi:nodetypes="ccccccccccccccc" />
  </g>
</svg>
