<?xml version="1.0" encoding="UTF-8" standalone="no"?>
<!-- Generator: Adobe Illustrator 19.0.0, SVG Export Plug-In . SVG Version: 6.00 Build 0)  -->

<svg
   version="1.1"
   id="Layer_1"
   x="0px"
   y="0px"
   viewBox="0 0 512 512"
   style="enable-background:new 0 0 512 512;"
   xml:space="preserve"
   sodipodi:docname="boton-x.svg"
   inkscape:version="1.1 (c68e22c387, 2021-05-23)"
   xmlns:inkscape="http://www.inkscape.org/namespaces/inkscape"
   xmlns:sodipodi="http://sodipodi.sourceforge.net/DTD/sodipodi-0.dtd"
   xmlns="http://www.w3.org/2000/svg"
   xmlns:svg="http://www.w3.org/2000/svg"><defs
   id="defs45" /><sodipodi:namedview
   id="namedview43"
   pagecolor="#ffffff"
   bordercolor="#999999"
   borderopacity="1"
   inkscape:pageshadow="0"
   inkscape:pageopacity="0"
   inkscape:pagecheckerboard="0"
   showgrid="false"
   inkscape:zoom="1.2734375"
   inkscape:cx="255.60736"
   inkscape:cy="256.39264"
   inkscape:window-width="1600"
   inkscape:window-height="837"
   inkscape:window-x="-8"
   inkscape:window-y="-8"
   inkscape:window-maximized="1"
   inkscape:current-layer="Layer_1" />
<circle
   style="fill:#1d2949;fill-opacity:1"
   cx="256"
   cy="256"
   r="256"
   id="circle2" />
<path
   style="fill:#131a2c;fill-opacity:1"
   d="M510.28,285.304L367.912,142.936L150.248,368.608l140.928,140.928  C406.352,493.696,497.056,401.288,510.28,285.304z"
   id="path4" />
<g
   id="g10">
	<path
   style="fill:#FFFFFF;"
   d="M354.376,371.536c-5.12,0-10.232-1.952-14.144-5.856L146.408,171.848   c-7.816-7.816-7.816-20.472,0-28.28s20.472-7.816,28.28,0L368.52,337.4c7.816,7.816,7.816,20.472,0,28.28   C364.608,369.584,359.496,371.536,354.376,371.536z"
   id="path6" />
	<path
   style="fill:#FFFFFF;"
   d="M160.544,371.536c-5.12,0-10.232-1.952-14.144-5.856c-7.816-7.816-7.816-20.472,0-28.28   l193.832-193.832c7.816-7.816,20.472-7.816,28.28,0s7.816,20.472,0,28.28L174.688,365.68   C170.784,369.584,165.664,371.536,160.544,371.536z"
   id="path8" />
</g>
<g
   id="g12">
</g>
<g
   id="g14">
</g>
<g
   id="g16">
</g>
<g
   id="g18">
</g>
<g
   id="g20">
</g>
<g
   id="g22">
</g>
<g
   id="g24">
</g>
<g
   id="g26">
</g>
<g
   id="g28">
</g>
<g
   id="g30">
</g>
<g
   id="g32">
</g>
<g
   id="g34">
</g>
<g
   id="g36">
</g>
<g
   id="g38">
</g>
<g
   id="g40">
</g>
</svg>
