<?xml version="1.0" encoding="UTF-8" standalone="no"?>
<!-- Generator: Adobe Illustrator 18.0.0, SVG Export Plug-In . SVG Version: 6.00 Build 0)  -->

<svg
   version="1.1"
   id="Capa_1"
   x="0px"
   y="0px"
   viewBox="0 0 493.497 493.497"
   style="enable-background:new 0 0 493.497 493.497;"
   xml:space="preserve"
   sodipodi:docname="correo-electronico-vacio.svg"
   inkscape:version="1.1 (c68e22c387, 2021-05-23)"
   xmlns:inkscape="http://www.inkscape.org/namespaces/inkscape"
   xmlns:sodipodi="http://sodipodi.sourceforge.net/DTD/sodipodi-0.dtd"
   xmlns="http://www.w3.org/2000/svg"
   xmlns:svg="http://www.w3.org/2000/svg"><defs
   id="defs37" /><sodipodi:namedview
   id="namedview35"
   pagecolor="#ffffff"
   bordercolor="#999999"
   borderopacity="1"
   inkscape:pageshadow="0"
   inkscape:pageopacity="0"
   inkscape:pagecheckerboard="0"
   showgrid="false"
   inkscape:zoom="0.46710884"
   inkscape:cx="-58.872789"
   inkscape:cy="116.67516"
   inkscape:window-width="1600"
   inkscape:window-height="837"
   inkscape:window-x="-8"
   inkscape:window-y="-8"
   inkscape:window-maximized="1"
   inkscape:current-layer="Capa_1" />
<path
   d="M444.556,85.218H48.942C21.954,85.218,0,107.171,0,134.16v225.177c0,26.988,21.954,48.942,48.942,48.942h395.613  c26.988,0,48.941-21.954,48.941-48.942V134.16C493.497,107.171,471.544,85.218,444.556,85.218z M460.87,134.16v225.177  c0,2.574-0.725,4.924-1.793,7.09L343.74,251.081l117.097-117.097C460.837,134.049,460.87,134.096,460.87,134.16z M32.628,359.336  V134.16c0-0.064,0.033-0.11,0.033-0.175l117.097,117.097L34.413,366.426C33.353,364.26,32.628,361.911,32.628,359.336z   M251.784,296.902c-2.692,2.691-7.378,2.691-10.07,0L62.667,117.846h368.172L251.784,296.902z M172.827,274.152l45.818,45.819  c7.512,7.511,17.493,11.645,28.104,11.645c10.61,0,20.592-4.134,28.104-11.645l45.82-45.819l101.49,101.499H71.327L172.827,274.152z  "
   id="path2"
   style="fill:#dae3ff;fill-opacity:1" />
<g
   id="g4">
</g>
<g
   id="g6">
</g>
<g
   id="g8">
</g>
<g
   id="g10">
</g>
<g
   id="g12">
</g>
<g
   id="g14">
</g>
<g
   id="g16">
</g>
<g
   id="g18">
</g>
<g
   id="g20">
</g>
<g
   id="g22">
</g>
<g
   id="g24">
</g>
<g
   id="g26">
</g>
<g
   id="g28">
</g>
<g
   id="g30">
</g>
<g
   id="g32">
</g>
</svg>
