<?xml version="1.0" encoding="UTF-8" standalone="no"?>
<svg
   viewBox="0 0 512 512"
   version="1.1"
   id="svg4"
   sodipodi:docname="github.svg"
   inkscape:version="1.1 (c68e22c387, 2021-05-23)"
   xmlns:inkscape="http://www.inkscape.org/namespaces/inkscape"
   xmlns:sodipodi="http://sodipodi.sourceforge.net/DTD/sodipodi-0.dtd"
   xmlns="http://www.w3.org/2000/svg"
   xmlns:svg="http://www.w3.org/2000/svg">
  <defs
     id="defs8" />
  <sodipodi:namedview
     id="namedview6"
     pagecolor="#ffffff"
     bordercolor="#999999"
     borderopacity="1"
     inkscape:pageshadow="0"
     inkscape:pageopacity="0"
     inkscape:pagecheckerboard="0"
     showgrid="false"
     inkscape:zoom="0.63671875"
     inkscape:cx="38.478528"
     inkscape:cy="374.57669"
     inkscape:window-width="1600"
     inkscape:window-height="837"
     inkscape:window-x="-8"
     inkscape:window-y="-8"
     inkscape:window-maximized="1"
     inkscape:current-layer="svg4" />
  <path
     d="m 255.94762,14.926533 c -131.5195,0 -239.450535,107.931037 -239.450535,239.450537 0,112.23148 78.752395,214.18138 183.329315,239.45054 v -79.22007 c -10.36197,2.26896 -19.89819,2.33473 -30.44649,-0.77459 -14.15088,-4.1762 -25.64916,-13.60281 -34.18426,-27.97658 -5.44039,-9.17815 -15.08257,-19.1309 -25.14127,-18.40015 l -2.46627,-27.951 c 21.75062,-1.8634 40.5673,13.25206 51.73675,32.0176 4.96176,8.3451 10.67253,13.23744 18.0019,15.40045 7.08457,2.08627 14.69163,1.08515 23.55556,-2.04609 2.22512,-17.74615 10.35466,-24.38862 16.49658,-33.74215 v -0.0146 c -62.36909,-9.30239 -87.22538,-42.39053 -97.09044,-68.50736 -13.07303,-34.67751 -6.05788,-77.99973 17.05924,-105.37709 0.44941,-0.53344 1.26053,-1.92917 0.94631,-2.90471 -10.59945,-32.01759 2.31647,-58.50345 2.79145,-61.31317 12.23267,3.61719 14.2203,-3.63911 53.13613,20.00415 l 6.72651,4.04102 c 2.81336,1.67706 1.92916,0.71979 4.74253,0.50787 16.24812,-4.4137 33.37679,-6.85074 50.25334,-7.06995 17.00444,0.21921 34.02349,2.65625 50.94389,7.24898 l 2.17762,0.21922 c -0.19,-0.0292 0.5919,-0.13883 1.90359,-0.92073 48.61281,-29.44537 46.86633,-19.82146 59.90282,-24.05979 0.47133,2.81338 13.21553,29.73037 2.72934,61.3424 -1.41399,4.35524 42.14572,44.24296 18.00191,108.27084 -9.86506,26.12779 -34.71771,59.21593 -97.08679,68.51832 v 0.0146 c 7.99434,12.18517 17.59999,18.66687 17.54884,43.80451 v 98.88807 C 416.64577,468.55845 495.39451,366.60855 495.39451,254.37707 495.39816,122.85757 387.46712,14.926533 255.94762,14.926533 Z m 0,0"
     id="path2"
     style="fill:none;stroke:#000000;stroke-width:22.542;stroke-miterlimit:4;stroke-dasharray:none;stroke-opacity:1" />
</svg>
