<?xml version="1.0" encoding="UTF-8" standalone="no"?>
<svg
   height="512pt"
   viewBox="0 0 512 512"
   width="512pt"
   version="1.1"
   id="svg4"
   sodipodi:docname="linkedin.svg"
   inkscape:version="1.1 (c68e22c387, 2021-05-23)"
   xmlns:inkscape="http://www.inkscape.org/namespaces/inkscape"
   xmlns:sodipodi="http://sodipodi.sourceforge.net/DTD/sodipodi-0.dtd"
   xmlns="http://www.w3.org/2000/svg"
   xmlns:svg="http://www.w3.org/2000/svg">
  <defs
     id="defs8" />
  <sodipodi:namedview
     id="namedview6"
     pagecolor="#ffffff"
     bordercolor="#999999"
     borderopacity="1"
     inkscape:pageshadow="0"
     inkscape:pageopacity="0"
     inkscape:pagecheckerboard="0"
     inkscape:document-units="pt"
     showgrid="false"
     inkscape:zoom="0.47753907"
     inkscape:cx="330.86298"
     inkscape:cy="286.88752"
     inkscape:window-width="1347"
     inkscape:window-height="860"
     inkscape:window-x="237"
     inkscape:window-y="0"
     inkscape:window-maximized="0"
     inkscape:current-layer="svg4" />
  <path
     d="m 255.21472,15.093508 c -133.46227,0 -241.691764,108.229492 -241.691764,241.691762 0,133.46227 108.229494,241.69177 241.691764,241.69177 133.46227,0 241.69177,-108.2295 241.69177,-241.69177 0,-133.46227 -108.2295,-241.691762 -241.69177,-241.691762 z M 184.98191,380.46348 h -58.86296 v -177.0904 h 58.86296 z M 155.55227,179.19136 h -0.38354 c -19.75252,0 -32.52748,-13.59737 -32.52748,-30.59132 0,-17.3775 13.16588,-30.59871 33.30195,-30.59871 20.13606,0 32.52748,13.22121 32.91102,30.59871 0,16.99395 -12.77496,30.59132 -33.30195,30.59132 z m 241.67702,201.27212 h -58.85558 v -94.73907 c 0,-23.80923 -8.52278,-40.04716 -29.82055,-40.04716 -16.26005,0 -25.94454,10.95313 -30.2004,21.52641 -1.5563,3.78381 -1.93617,9.07229 -1.93617,14.36446 v 98.89536 h -58.85925 c 0,0 0.77077,-160.47631 0,-177.0904 h 58.85925 v 25.07419 c 7.8221,-12.06689 21.81776,-29.23048 53.0471,-29.23048 38.72688,0 67.7656,25.31022 67.7656,79.70341 z m 0,0"
     id="path2"
     style="fill:none;stroke:#dae3ff;stroke-width:20.676;stroke-miterlimit:4;stroke-dasharray:none;stroke-opacity:1" />
</svg>
