<?xml version="1.0" encoding="UTF-8" standalone="no"?>
<svg
   id="Capa_1"
   enable-background="new 0 0 511.969 511.969"
   height="512"
   viewBox="0 0 511.969 511.969"
   width="512"
   version="1.1"
   sodipodi:docname="responsive.svg"
   inkscape:version="1.1 (c68e22c387, 2021-05-23)"
   xmlns:inkscape="http://www.inkscape.org/namespaces/inkscape"
   xmlns:sodipodi="http://sodipodi.sourceforge.net/DTD/sodipodi-0.dtd"
   xmlns="http://www.w3.org/2000/svg"
   xmlns:svg="http://www.w3.org/2000/svg">
  <defs
     id="defs19" />
  <sodipodi:namedview
     id="namedview17"
     pagecolor="#ffffff"
     bordercolor="#999999"
     borderopacity="1"
     inkscape:pageshadow="0"
     inkscape:pageopacity="0"
     inkscape:pagecheckerboard="0"
     showgrid="false"
     inkscape:zoom="0.31835938"
     inkscape:cx="-133.49693"
     inkscape:cy="-29.840491"
     inkscape:window-width="1600"
     inkscape:window-height="837"
     inkscape:window-x="-8"
     inkscape:window-y="-8"
     inkscape:window-maximized="1"
     inkscape:current-layer="Capa_1" />
  <g
     id="g14">
    <g
       id="g12">
      <g
         id="g10">
        <path
           d="m422.358 251.392c-30.603 0-55.5 24.897-55.5 55.5s24.897 55.5 55.5 55.5 55.5-24.897 55.5-55.5-24.897-55.5-55.5-55.5zm0 96c-22.332 0-40.5-18.168-40.5-40.5s18.168-40.5 40.5-40.5 40.5 18.168 40.5 40.5-18.168 40.5-40.5 40.5z"
           id="path2" />
        <path
           d="m444.012 287.398c-3.232-2.595-7.953-2.075-10.543 1.156l-15.991 19.932-6.187-7.854c-2.564-3.253-7.281-3.812-10.533-1.25-3.254 2.563-3.813 7.279-1.25 10.533l12.025 15.264c1.415 1.796 3.572 2.849 5.858 2.858h.033c2.274 0 4.427-1.032 5.85-2.807l21.894-27.29c2.593-3.231 2.074-7.95-1.156-10.542z"
           id="path4" />
        <path
           d="m504.469 212.402c4.143 0 7.5-3.357 7.5-7.5v-32.051c0-12.674-10.311-22.985-22.984-22.985h-54.732v-68.299c0-18.481-15.035-33.518-33.517-33.518h-336.39c-18.481 0-33.517 15.036-33.517 33.518v219.03h-17.195c-7.518 0-13.634 6.116-13.634 13.635v27.318c0 13.106 10.663 23.77 23.77 23.77h73.073c4.143 0 7.5-3.357 7.5-7.5s-3.357-7.5-7.5-7.5h-73.073c-4.836 0-8.77-3.934-8.77-8.77v-25.953h315.815v34.723h-199.183c-4.143 0-7.5 3.357-7.5 7.5s3.357 7.5 7.5 7.5h199.184v75.614c0 12.674 10.312 22.985 22.985 22.985h135.184c12.674 0 22.984-10.312 22.984-22.985v-201.229c0-4.143-3.357-7.5-7.5-7.5s-7.5 3.357-7.5 7.5v201.229c0 4.403-3.582 7.985-7.984 7.985h-135.184c-4.403 0-7.985-3.582-7.985-7.985v-268.083c0-4.403 3.582-7.985 7.985-7.985h16.663l4.49 16.813c.017.063.034.124.052.186 1.655 5.616 6.9 9.539 12.755 9.539h67.265c5.854 0 11.1-3.923 12.755-9.539.018-.062.035-.123.052-.185l4.49-16.813h16.663c4.402 0 7.984 3.582 7.984 7.985v32.051c-.001 4.141 3.356 7.499 7.499 7.499zm-442.506-120.683v208.878h-16.134v-219.03c0-10.211 8.307-18.518 18.517-18.518h336.39c10.21 0 18.517 8.307 18.517 18.518v68.299h-16.135v-58.147c0-7.044-5.73-12.774-12.774-12.774h-315.607c-7.044 0-12.774 5.73-12.774 12.774zm291.838 58.147c-12.674 0-22.985 10.312-22.985 22.985v127.746h-253.853v-206.652h311.154v55.921zm99.913 26.537h-64.644l-3.081-11.537h70.807z"
           id="path6" />
      </g>
    </g>
  </g>
  <path
     d="m 254.86601,188.59196 c -3.232,-2.595 -7.953,-2.075 -10.543,1.156 l -15.991,19.932 -6.187,-7.854 c -2.564,-3.253 -7.281,-3.812 -10.533,-1.25 -3.254,2.563 -3.813,7.279 -1.25,10.533 l 12.025,15.264 c 1.415,1.796 3.572,2.849 5.858,2.858 h 0.033 c 2.274,0 4.427,-1.032 5.85,-2.807 l 21.894,-27.29 c 2.593,-3.231 2.074,-7.95 -1.156,-10.542 z"
     id="path4-5" />
  <path
     d="m 233.45103,153.09317 c -30.603,0 -55.5,24.897 -55.5,55.5 0,30.603 24.897,55.5 55.5,55.5 30.603,0 55.5,-24.897 55.5,-55.5 0,-30.603 -24.897,-55.5 -55.5,-55.5 z m 0,96 c -22.332,0 -40.5,-18.168 -40.5,-40.5 0,-22.332 18.168,-40.5 40.5,-40.5 22.332,0 40.5,18.168 40.5,40.5 0,22.332 -18.168,40.5 -40.5,40.5 z"
     id="path2-2" />
</svg>
