<?xml version="1.0" encoding="UTF-8" standalone="no"?>
<svg
   width="40"
   height="40"
   class="d-block my-1"
   viewBox="0 0 118 117.5"
   role="img"
   version="1.1"
   id="svg6"
   sodipodi:docname="bootstrap.svg"
   inkscape:version="1.1 (c68e22c387, 2021-05-23)"
   xmlns:inkscape="http://www.inkscape.org/namespaces/inkscape"
   xmlns:sodipodi="http://sodipodi.sourceforge.net/DTD/sodipodi-0.dtd"
   xmlns="http://www.w3.org/2000/svg"
   xmlns:svg="http://www.w3.org/2000/svg"
   xmlns:rdf="http://www.w3.org/1999/02/22-rdf-syntax-ns#"
   xmlns:cc="http://creativecommons.org/ns#"
   xmlns:dc="http://purl.org/dc/elements/1.1/">
  <defs
     id="defs10" />
  <sodipodi:namedview
     id="namedview8"
     pagecolor="#ffffff"
     bordercolor="#999999"
     borderopacity="1"
     inkscape:pageshadow="0"
     inkscape:pageopacity="0"
     inkscape:pagecheckerboard="0"
     showgrid="false"
     height="40px"
     inkscape:zoom="7.2036503"
     inkscape:cx="0.34704627"
     inkscape:cy="10.619616"
     inkscape:window-width="1600"
     inkscape:window-height="837"
     inkscape:window-x="-8"
     inkscape:window-y="-8"
     inkscape:window-maximized="1"
     inkscape:current-layer="svg6" />
  <title
     id="title2">Bootstrap</title>
  <path
     fill-rule="evenodd"
     clip-rule="evenodd"
     d="m 24.509,11.466409 c -6.733,0 -11.715,5.893 -11.492,12.284 0.214,6.14 -0.064,14.092 -2.066,20.577 -2.008,6.504 -5.404,10.624 -10.951,11.153 v 5.972 c 5.547,0.529 8.943,4.649 10.951,11.153 2.002,6.485 2.28,14.437 2.066,20.577 -0.223,6.39 4.759,12.284001 11.493,12.284001 H 93.5 c 6.733,0 11.714,-5.893001 11.491,-12.284001 -0.214,-6.14 0.064,-14.092 2.066,-20.577 2.009,-6.504 5.396,-10.624 10.943,-11.153 v -5.972 c -5.547,-0.529 -8.934,-4.649 -10.943,-11.153 -2.002,-6.484 -2.28,-14.437 -2.066,-20.577 0.223,-6.39 -4.758,-12.284 -11.491,-12.284 H 24.508 Z M 80,69.329409 c 0,8.8 -6.564,14.137 -17.457,14.137 H 44 a 2,2 0 0 1 -2,-2 v -46 a 2,2 0 0 1 2,-2 h 18.437 c 9.083,0 15.044,4.92 15.044,12.474 0,5.302 -4.01,10.049 -9.119,10.88 v 0.277 c 6.955,0.763 11.638,5.579 11.638,12.232 z m -19.479,-29.523 H 49.948 v 14.934 h 8.905 c 6.884,0 10.68,-2.772 10.68,-7.727 0,-4.643 -3.264,-7.207 -9.012,-7.207 z m -10.573,20.86 v 16.458 H 60.91 c 7.167,0 10.964,-2.876 10.964,-8.281 0,-5.406 -3.903,-8.178 -11.425,-8.178 H 49.948 Z"
     fill="currentColor"
     id="path4"
     style="fill:#ffffff" />
  <metadata
     id="metadata827">
    <rdf:RDF>
      <cc:Work
         rdf:about="">
        <dc:title>Bootstrap</dc:title>
      </cc:Work>
    </rdf:RDF>
  </metadata>
</svg>
