<?xml version="1.0" encoding="UTF-8" standalone="no"?>
<!-- Generator: Adobe Illustrator 19.0.0, SVG Export Plug-In . SVG Version: 6.00 Build 0)  -->

<svg
   version="1.1"
   id="Capa_1"
   x="0px"
   y="0px"
   viewBox="0 0 512 512"
   style="enable-background:new 0 0 512 512;"
   xml:space="preserve"
   sodipodi:docname="js.svg"
   inkscape:version="1.1 (c68e22c387, 2021-05-23)"
   xmlns:inkscape="http://www.inkscape.org/namespaces/inkscape"
   xmlns:sodipodi="http://sodipodi.sourceforge.net/DTD/sodipodi-0.dtd"
   xmlns="http://www.w3.org/2000/svg"
   xmlns:svg="http://www.w3.org/2000/svg"><defs
   id="defs39" /><sodipodi:namedview
   id="namedview37"
   pagecolor="#ffffff"
   bordercolor="#999999"
   borderopacity="1"
   inkscape:pageshadow="0"
   inkscape:pageopacity="0"
   inkscape:pagecheckerboard="0"
   showgrid="false"
   inkscape:zoom="0.90045629"
   inkscape:cx="103.83625"
   inkscape:cy="280.41339"
   inkscape:window-width="1600"
   inkscape:window-height="837"
   inkscape:window-x="-8"
   inkscape:window-y="-8"
   inkscape:window-maximized="1"
   inkscape:current-layer="Capa_1" />


<g
   id="g6">
</g>
<g
   id="g8">
</g>
<g
   id="g10">
</g>
<g
   id="g12">
</g>
<g
   id="g14">
</g>
<g
   id="g16">
</g>
<g
   id="g18">
</g>
<g
   id="g20">
</g>
<g
   id="g22">
</g>
<g
   id="g24">
</g>
<g
   id="g26">
</g>
<g
   id="g28">
</g>
<g
   id="g30">
</g>
<g
   id="g32">
</g>
<g
   id="g34">
</g>
<path
   d="M 476.91404,4.303 H 36.908877 C 19.237378,4.303 4.894,18.646378 4.894,36.317878 V 476.27613 c 0,17.6715 14.343378,32.01487 32.014877,32.01487 H 476.86713 c 17.67149,0 32.01487,-14.34337 32.01487,-31.96795 V 36.317878 C 508.882,18.646378 494.53862,4.303 476.91404,4.303 Z M 280.88743,390.49689 c 0,47.95206 -28.12433,69.79526 -69.18591,69.79526 -37.12411,0 -63.889,-24.89005 -74.81066,-47.99886 l 37.73346,-22.82753 c 7.26547,12.89021 18.32765,22.82753 34.26483,22.82753 15.234,0 23.99943,-5.95294 23.99943,-29.10867 V 232.29758 h 47.99885 z m 104.10688,69.79526 c -42.51462,0 -66.65469,-21.42141 -80.10745,-47.99886 L 340.886,388.29386 c 9.79669,16.0309 20.48388,31.35862 43.07706,31.35862 18.98391,0 28.92123,-9.4685 28.92123,-22.59319 0,-15.6559 -10.31232,-21.23385 -31.17118,-30.37427 l -11.43717,-4.92181 c -33.04613,-14.0621 -55.02997,-31.68668 -55.02997,-68.99835 0,-34.31162 26.20246,-60.46728 67.07649,-60.46728 29.10878,0 50.01445,10.12476 65.10793,36.65541 l -35.62416,22.92125 c -7.87481,-14.10902 -16.31217,-19.64017 -29.48377,-19.64017 -13.40584,0 -21.89,8.53107 -21.89,19.64017 0,13.73403 8.48416,19.26518 28.12433,27.79626 l 11.43717,4.9218 c 38.95215,16.64012 60.88919,33.65536 60.88919,71.90445 0,41.20222 -32.38987,63.7954 -75.88884,63.7954 z"
   id="path2"
   style="fill:#ffffff;stroke-width:11.9997" /></svg>
