<?xml version="1.0" encoding="UTF-8" standalone="no"?>
<!-- Created with Inkscape (http://www.inkscape.org/) -->

<svg
   width="90mm"
   height="90mm"
   viewBox="0 0 90 90"
   version="1.1"
   id="svg26408"
   inkscape:version="1.1 (1:1.1+202105261517+ce6663b3b7)"
   sodipodi:docname="logo.svg"
   xmlns:inkscape="http://www.inkscape.org/namespaces/inkscape"
   xmlns:sodipodi="http://sodipodi.sourceforge.net/DTD/sodipodi-0.dtd"
   xmlns="http://www.w3.org/2000/svg"
   xmlns:svg="http://www.w3.org/2000/svg">
  <sodipodi:namedview
     id="namedview26410"
     pagecolor="#ffffff"
     bordercolor="#666666"
     borderopacity="1.0"
     inkscape:pageshadow="2"
     inkscape:pageopacity="0.0"
     inkscape:pagecheckerboard="0"
     inkscape:document-units="px"
     showgrid="false"
     width="90mm"
     inkscape:zoom="0.48284231"
     inkscape:cx="3.1066043"
     inkscape:cy="165.68556"
     inkscape:window-width="1307"
     inkscape:window-height="713"
     inkscape:window-x="59"
     inkscape:window-y="27"
     inkscape:window-maximized="1"
     inkscape:current-layer="layer1"
     inkscape:snap-global="true" />
  <defs
     id="defs26405" />
  <g
     inkscape:label="Capa 1"
     inkscape:groupmode="layer"
     id="layer1">
    <path
       style="display:inline;fill:#ffffff;fill-opacity:1;stroke:none;stroke-width:0.395333px;stroke-linecap:butt;stroke-linejoin:miter;stroke-opacity:0.015015"
       d="m 28.788791,55.355543 3.606611,-3.144866 9.160044,-2.383599 -1.285409,1.010855 -7.637524,1.971774 -2.383599,1.921853 z"
       id="path1260" />
    <path
       style="display:inline;fill:#ffffff;fill-opacity:1;stroke:none;stroke-width:0.395333px;stroke-linecap:butt;stroke-linejoin:miter;stroke-opacity:1"
       d="M 17.313791,58.756242 14.774185,59.7047 c 0,0 16.453713,-15.724645 46.832083,-11.438139 0.242774,0.03422 -0.126258,0.655554 -0.37063,0.635353 -28.38239,-2.346095 -43.921847,9.854328 -43.921847,9.854328"
       id="path1262"
       sodipodi:nodetypes="ccssc" />
    <path
       style="display:inline;fill:#ffffff;fill-opacity:1;stroke:none;stroke-width:0.395333px;stroke-linecap:butt;stroke-linejoin:miter;stroke-opacity:1"
       d="M 15.631035,67.909712 4.5122758,57.002737 10.58347,52.343434 l 2.612029,1.447214 c 0,0 6.977606,-5.043232 13.711109,-7.864355 3.067498,-1.28517 15.691863,-4.454541 15.691863,-4.454541 l 4.129827,2.717921 15.001509,0.282384 4.550557,8.625099 -5.433003,-7.319085 -15.226875,0.52849 -3.450948,-2.741857 c 0,0 -10.091872,2.059631 -14.444451,3.856198 -5.368304,2.215833 -14.629414,8.800785 -14.629414,8.800785 l -2.250498,-1.655472 -3.4723152,2.777448 z"
       id="path1266"
       sodipodi:nodetypes="ccccscccccccscccc" />
    <path
       style="display:inline;fill:#ffffff;fill-opacity:1;stroke:none;stroke-width:0.395333px;stroke-linecap:butt;stroke-linejoin:miter;stroke-opacity:1"
       d="m 25.431782,67.972437 c 0,0 -2.761924,-0.860003 -4.643525,-2.88225 -2.020439,-2.17147 -2.376202,-4.015746 -2.376202,-4.015746 l 2.839053,-0.415053 c 0,0 0.269101,3.547174 1.268107,4.691085 1.07104,1.226419 2.912567,2.621964 2.912567,2.621964 z"
       id="path1268"
       sodipodi:nodetypes="csccsc" />
    <path
       sodipodi:nodetypes="csccsc"
       id="path1268-8"
       d="m 32.19593,65.801624 c 0,0 -2.524544,-1.377301 -3.461049,-2.458681 -1.337272,-1.544156 -1.952619,-3.503932 -1.952619,-3.503932 l 2.238978,-0.291513 c 0,0 0.341329,2.760624 1.321045,3.967484 1.733887,2.13585 1.853645,2.286642 1.853645,2.286642 z"
       style="display:inline;fill:#ffffff;fill-opacity:1;stroke:none;stroke-width:0.395333px;stroke-linecap:butt;stroke-linejoin:miter;stroke-opacity:1" />
    <path
       sodipodi:nodetypes="csccsc"
       id="path1268-7"
       d="m 39.5202,64.319133 c 0,0 -2.003032,-0.489373 -3.884633,-2.51162 -2.020424,-2.171471 -1.687895,-3.098009 -1.687895,-3.098009 l 2.274299,-0.273867 c 0,0 -0.383913,1.323421 0.103248,2.537932 0.606202,1.511209 3.194951,3.345564 3.194951,3.345564 z"
       style="display:inline;fill:#ffffff;fill-opacity:1;stroke:none;stroke-width:0.395333px;stroke-linecap:butt;stroke-linejoin:miter;stroke-opacity:1" />
    <path
       sodipodi:nodetypes="csccsc"
       id="path1268-80"
       d="m 44.407678,61.764839 c 0,0 -1.265731,0.112362 -3.265655,-1.792816 -0.537933,-0.512487 -1.405511,-2.074379 -1.405511,-2.074379 l 2.839053,-0.415052 c 0,0 -0.859166,1.312454 -0.513922,1.925021 0.81848,1.452249 2.346035,2.357226 2.346035,2.357226 z"
       style="display:inline;fill:#ffffff;fill-opacity:1;stroke:none;stroke-width:0.395333px;stroke-linecap:butt;stroke-linejoin:miter;stroke-opacity:1" />
    <path
       style="display:inline;fill:#ffffff;fill-opacity:1;stroke:none;stroke-width:0.395333px;stroke-linecap:butt;stroke-linejoin:miter;stroke-opacity:1"
       d="m 23.907125,73.797989 c 0,0 -1.052602,-1.380783 -1.368874,-2.177731 -0.487117,-1.227436 -0.765407,-3.887038 -0.765407,-3.887038 0,0 1.139518,2.155751 2.057749,2.909234 0.892411,0.732311 3.163454,1.409561 3.163454,1.409561 z"
       id="path1312"
       sodipodi:nodetypes="cscscc" />
    <path
       sodipodi:nodetypes="cscscc"
       id="path1312-4"
       d="m 27.982384,71.557846 c 0,0 -0.436075,-0.842371 -0.601988,-2.318931 -0.289183,-2.573672 -0.05409,-4.348783 -0.05409,-4.348783 0,0 0.116247,2.105846 1.60848,3.845216 0.75169,0.876155 2.015329,1.322196 2.015329,1.322196 z"
       style="display:inline;fill:#ffffff;fill-opacity:1;stroke:none;stroke-width:0.395333px;stroke-linecap:butt;stroke-linejoin:miter;stroke-opacity:1" />
    <path
       style="display:inline;fill:#ffffff;fill-opacity:1;stroke:none;stroke-width:0.369504px;stroke-linecap:butt;stroke-linejoin:miter;stroke-opacity:1"
       d="m 34.72424,68.345757 c 0,0 -0.436076,-0.735897 -0.601989,-2.025818 -0.289183,-2.248361 -0.05409,-3.799092 -0.05409,-3.799092 0,0 0.116247,1.839674 1.60848,3.359176 0.75169,0.765407 2.015329,1.155073 2.015329,1.155073 z"
       id="path1312-4-3"
       sodipodi:nodetypes="cscscc" />
    <path
       style="display:inline;fill:#ffffff;fill-opacity:1;stroke:none;stroke-width:0.312085px;stroke-linecap:butt;stroke-linejoin:miter;stroke-opacity:1"
       d="m 40.866034,64.957176 c 0,0 -0.392132,-0.583805 -0.54131,-1.607136 -0.260032,-1.783687 -0.04856,-3.013916 -0.04856,-3.013916 0,0 0.104443,1.459451 1.446332,2.664922 0.675921,0.607218 1.812181,0.916348 1.812181,0.916348 z"
       id="path1312-4-2"
       sodipodi:nodetypes="cscscc" />
    <path
       style="display:inline;fill:#ffffff;fill-opacity:1;stroke:none;stroke-width:0.395333px;stroke-linecap:butt;stroke-linejoin:miter;stroke-opacity:1"
       d="m 47.716635,59.402966 5.824118,-5.965302 19.696104,0.635353 4.059227,5.400549 -4.694595,-4.023935 -18.39009,-0.388276 -4.694581,4.588703 3.632804,3.930519 z"
       id="path1352" />
    <path
       style="display:inline;fill:#ffffff;fill-opacity:1;stroke:none;stroke-width:0.395333px;stroke-linecap:butt;stroke-linejoin:miter;stroke-opacity:1"
       d="m 29.926606,80.793361 -8.869696,-5.10391 0.236722,-2.34466 2.413826,0.290961 22.922075,-11.797623 0.794005,0.409329 -23.25045,12.262924 -1.908227,-0.228564 -0.106236,1.252194 7.09735,3.918043 z"
       id="path1354"
       sodipodi:nodetypes="ccccccccccc" />
    <path
       style="display:inline;fill:#ffffff;fill-opacity:1;stroke:none;stroke-width:0.395333px;stroke-linecap:butt;stroke-linejoin:miter;stroke-opacity:1"
       d="m 25.28202,39.331719 0.319022,-1.239225 -8.909277,6.338488 -3.496266,9.359666 1.254226,-0.78126 2.890408,-8.136489 z"
       id="path1356"
       sodipodi:nodetypes="ccccccc" />
    <path
       style="display:inline;fill:#ffffff;fill-opacity:1;stroke:none;stroke-width:0.395333px;stroke-linecap:butt;stroke-linejoin:miter;stroke-opacity:1"
       d="m 17.794258,48.916064 1.023331,-3.868675 3.64404,-0.898537 -0.726946,0.829835 -2.612028,0.600061 -0.882431,3.000305 z"
       id="path1358" />
    <path
       style="display:inline;fill:#ffffff;fill-opacity:1;stroke:none;stroke-width:0.395333px;stroke-linecap:butt;stroke-linejoin:miter;stroke-opacity:1"
       d="M 45.487624,1.8112186 30.244282,19.798973 16.920688,44.36101 19.341731,42.645068 31.214974,20.13431 41.660263,7.4531216 Z"
       id="path1360"
       sodipodi:nodetypes="ccccccc" />
    <path
       style="display:inline;fill:#ffffff;fill-opacity:1;stroke:none;stroke-width:0.395333px;stroke-linecap:butt;stroke-linejoin:miter;stroke-opacity:1"
       d="m 27.382323,44.343423 5.462348,-8.356237 9.334758,-5.965258 -1.946821,2.071615 -6.714034,4.79218 -6.214844,8.885475 z"
       id="path1362" />
    <path
       style="display:inline;fill:#ffffff;fill-opacity:1;stroke:none;stroke-width:0.395333px;stroke-linecap:butt;stroke-linejoin:miter;stroke-opacity:1"
       d="m 34.72424,42.225564 8.428585,-9.10869 14.601159,-7.46281 -3.768849,2.570804 -10.208327,5.690703 -9.135077,9.559378 z"
       id="path1364" />
    <path
       style="display:inline;fill:#ffffff;fill-opacity:1;stroke:none;stroke-width:0.395333px;stroke-linecap:butt;stroke-linejoin:miter;stroke-opacity:1"
       d="m 45.948891,40.178289 11.056317,-10.98001 13.228386,-6.788907 -2.39609,1.946822 -10.108487,5.665734 -11.930515,11.730834 z"
       id="path1366" />
    <path
       style="display:inline;fill:#ffffff;fill-opacity:1;stroke:none;stroke-width:0.395333px;stroke-linecap:butt;stroke-linejoin:miter;stroke-opacity:1"
       d="m 55.835089,43.448427 0.914899,-2.070016 12.568827,-6.29553 18.601876,5.824102 -3.663989,-0.408761 -14.831995,-3.650466 z"
       id="path1368"
       sodipodi:nodetypes="ccccccc" />
  </g>
</svg>
