<?xml version="1.0" encoding="UTF-8" standalone="no"?>
<!-- Generator: Adobe Illustrator 19.0.0, SVG Export Plug-In . SVG Version: 6.00 Build 0)  -->

<svg
   version="1.1"
   id="Capa_1"
   x="0px"
   y="0px"
   viewBox="0 0 512 512"
   style="enable-background:new 0 0 512 512;"
   xml:space="preserve"
   sodipodi:docname="node.svg"
   inkscape:version="1.1 (c68e22c387, 2021-05-23)"
   xmlns:inkscape="http://www.inkscape.org/namespaces/inkscape"
   xmlns:sodipodi="http://sodipodi.sourceforge.net/DTD/sodipodi-0.dtd"
   xmlns="http://www.w3.org/2000/svg"
   xmlns:svg="http://www.w3.org/2000/svg"><defs
   id="defs39" /><sodipodi:namedview
   id="namedview37"
   pagecolor="#ffffff"
   bordercolor="#999999"
   borderopacity="1"
   inkscape:pageshadow="0"
   inkscape:pageopacity="0"
   inkscape:pagecheckerboard="0"
   showgrid="false"
   inkscape:zoom="0.63671875"
   inkscape:cx="297.61963"
   inkscape:cy="327.46012"
   inkscape:window-width="1600"
   inkscape:window-height="837"
   inkscape:window-x="-8"
   inkscape:window-y="-8"
   inkscape:window-maximized="1"
   inkscape:current-layer="Capa_1" />


<g
   id="g6">
</g>
<g
   id="g8">
</g>
<g
   id="g10">
</g>
<g
   id="g12">
</g>
<g
   id="g14">
</g>
<g
   id="g16">
</g>
<g
   id="g18">
</g>
<g
   id="g20">
</g>
<g
   id="g22">
</g>
<g
   id="g24">
</g>
<g
   id="g26">
</g>
<g
   id="g28">
</g>
<g
   id="g30">
</g>
<g
   id="g32">
</g>
<g
   id="g34">
</g>
<path
   style="fill:#ffffff;stroke-width:3.69702"
   d="m 360.63983,224.97552 c 0,0 -4.18503,-35.96834 -42.65995,-35.96834 -38.47862,0 -64.8236,5.01686 -64.8236,26.34869 0,21.33182 74.86471,21.33182 103.30592,29.69449 28.44119,8.36266 53.53288,30.11224 40.98518,68.59087 -12.54768,38.47862 -51.0263,42.65995 -110.41528,42.65995 -59.38898,0 -72.7759,-49.35526 -72.7759,-68.59087 h 33.45805 c 0,0 -4.18502,30.11225 35.12912,35.12911 39.31414,5.01686 76.90548,7.84139 81.9741,-22.58142 6.69161,-40.15337 -127.14433,-20.07483 -138.85649,-59.38898 -9.89324,-33.21775 -4.18504,-76.95353 62.73478,-83.64885 66.91982,-6.6953 103.72369,22.85131 103.72369,66.91983 z"
   id="path20" /><path
   style="fill:#ffffff;stroke-width:3.69702"
   d="m 37.42388,381.78108 73.97004,42.70431 c 37.16617,21.45752 83.62297,-5.36437 83.62297,-48.27942 V 301.37081 163.6456 h -30.14923 v 204.17552 c 0,23.43542 -25.36897,38.08673 -45.66932,26.36347 L 67.569408,364.37919 V 146.47663 L 256.27657,37.536444 444.98371,146.47663 v 217.90256 l -188.70714,108.94018 -54.36104,-31.38403 -35.49881,14.31487 89.85614,51.88033 218.85638,-126.36055 V 129.07474 L 256.27657,2.7215757 37.420183,129.08214 v 252.69894 z"
   id="path22" /></svg>
