<?xml version="1.0" encoding="UTF-8" standalone="no"?>
<!-- Generator: Adobe Illustrator 16.0.0, SVG Export Plug-In . SVG Version: 6.00 Build 0)  -->

<svg
   version="1.1"
   id="Capa_1"
   x="0px"
   y="0px"
   width="45.16px"
   height="45.16px"
   viewBox="0 0 45.16 45.16"
   style="enable-background:new 0 0 45.16 45.16;"
   xml:space="preserve"
   sodipodi:docname="solclaro.svg"
   inkscape:version="1.1 (1:1.1+202105261517+ce6663b3b7)"
   xmlns:inkscape="http://www.inkscape.org/namespaces/inkscape"
   xmlns:sodipodi="http://sodipodi.sourceforge.net/DTD/sodipodi-0.dtd"
   xmlns="http://www.w3.org/2000/svg"
   xmlns:svg="http://www.w3.org/2000/svg"><defs
   id="defs75" /><sodipodi:namedview
   id="namedview73"
   pagecolor="#ffffff"
   bordercolor="#666666"
   borderopacity="1.0"
   inkscape:pageshadow="2"
   inkscape:pageopacity="0.0"
   inkscape:pagecheckerboard="0"
   showgrid="false"
   inkscape:zoom="6.0008858"
   inkscape:cx="5.4991882"
   inkscape:cy="13.498007"
   inkscape:window-width="1307"
   inkscape:window-height="713"
   inkscape:window-x="59"
   inkscape:window-y="27"
   inkscape:window-maximized="1"
   inkscape:current-layer="Capa_1" />
<g
   id="g40"
   style="fill:#fefefe;fill-opacity:1">
	<g
   id="g38"
   style="fill:#fefefe;fill-opacity:1">
		<path
   d="M22.58,11.269c-6.237,0-11.311,5.075-11.311,11.312s5.074,11.312,11.311,11.312c6.236,0,11.311-5.074,11.311-11.312    S28.816,11.269,22.58,11.269z"
   id="path2"
   style="fill:#fefefe;fill-opacity:1" />
		<g
   id="g36"
   style="fill:#fefefe;fill-opacity:1">
			<g
   id="g6"
   style="fill:#fefefe;fill-opacity:1">
				<path
   d="M22.58,7.944c-1.219,0-2.207-0.988-2.207-2.206V2.207C20.373,0.988,21.361,0,22.58,0c1.219,0,2.207,0.988,2.207,2.207      v3.531C24.787,6.956,23.798,7.944,22.58,7.944z"
   id="path4"
   style="fill:#fefefe;fill-opacity:1" />
			</g>
			<g
   id="g10"
   style="fill:#fefefe;fill-opacity:1">
				<path
   d="M22.58,37.215c-1.219,0-2.207,0.988-2.207,2.207v3.53c0,1.22,0.988,2.208,2.207,2.208c1.219,0,2.207-0.988,2.207-2.208      v-3.53C24.787,38.203,23.798,37.215,22.58,37.215z"
   id="path8"
   style="fill:#fefefe;fill-opacity:1" />
			</g>
			<g
   id="g14"
   style="fill:#fefefe;fill-opacity:1">
				<path
   d="M32.928,12.231c-0.861-0.862-0.861-2.259,0-3.121l2.497-2.497c0.861-0.861,2.259-0.861,3.121,0      c0.862,0.862,0.862,2.26,0,3.121l-2.497,2.497C35.188,13.093,33.791,13.093,32.928,12.231z"
   id="path12"
   style="fill:#fefefe;fill-opacity:1" />
			</g>
			<g
   id="g18"
   style="fill:#fefefe;fill-opacity:1">
				<path
   d="M12.231,32.93c-0.862-0.863-2.259-0.863-3.121,0l-2.497,2.496c-0.861,0.861-0.862,2.26,0,3.121      c0.862,0.861,2.26,0.861,3.121,0l2.497-2.498C13.093,35.188,13.093,33.79,12.231,32.93z"
   id="path16"
   style="fill:#fefefe;fill-opacity:1" />
			</g>
			<g
   id="g22"
   style="fill:#fefefe;fill-opacity:1">
				<path
   d="M37.215,22.58c0-1.219,0.988-2.207,2.207-2.207h3.531c1.219,0,2.207,0.988,2.207,2.207c0,1.219-0.988,2.206-2.207,2.206      h-3.531C38.203,24.786,37.215,23.799,37.215,22.58z"
   id="path20"
   style="fill:#fefefe;fill-opacity:1" />
			</g>
			<g
   id="g26"
   style="fill:#fefefe;fill-opacity:1">
				<path
   d="M7.944,22.58c0-1.219-0.988-2.207-2.207-2.207h-3.53C0.988,20.373,0,21.361,0,22.58c0,1.219,0.988,2.206,2.207,2.206      h3.531C6.956,24.786,7.944,23.799,7.944,22.58z"
   id="path24"
   style="fill:#fefefe;fill-opacity:1" />
			</g>
			<g
   id="g30"
   style="fill:#fefefe;fill-opacity:1">
				<path
   d="M32.928,32.93c0.862-0.861,2.26-0.861,3.121,0l2.497,2.497c0.862,0.86,0.862,2.259,0,3.12s-2.259,0.861-3.121,0      l-2.497-2.497C32.066,35.188,32.066,33.791,32.928,32.93z"
   id="path28"
   style="fill:#fefefe;fill-opacity:1" />
			</g>
			<g
   id="g34"
   style="fill:#fefefe;fill-opacity:1">
				<path
   d="M12.231,12.231c0.862-0.862,0.862-2.259,0-3.121L9.734,6.614c-0.862-0.862-2.259-0.862-3.121,0      c-0.862,0.861-0.862,2.259,0,3.12l2.497,2.497C9.972,13.094,11.369,13.094,12.231,12.231z"
   id="path32"
   style="fill:#fefefe;fill-opacity:1" />
			</g>
		</g>
	</g>
</g>
<g
   id="g42">
</g>
<g
   id="g44">
</g>
<g
   id="g46">
</g>
<g
   id="g48">
</g>
<g
   id="g50">
</g>
<g
   id="g52">
</g>
<g
   id="g54">
</g>
<g
   id="g56">
</g>
<g
   id="g58">
</g>
<g
   id="g60">
</g>
<g
   id="g62">
</g>
<g
   id="g64">
</g>
<g
   id="g66">
</g>
<g
   id="g68">
</g>
<g
   id="g70">
</g>
</svg>
